<?xml version="1.0" encoding="utf-8"?>
<!-- Generator: Adobe Illustrator 23.0.1, SVG Export Plug-In . SVG Version: 6.00 Build 0)  -->
<svg version="1.1" id="Layer_1" xmlns="http://www.w3.org/2000/svg" xmlns:xlink="http://www.w3.org/1999/xlink" x="0px" y="0px"
	 viewBox="0 0 485 149" style="enable-background:new 0 0 485 149;" xml:space="preserve">
<style type="text/css">
	.st0{fill:#646464;}
	.st1{fill:url(#path1948_1_);}
	.st2{fill:url(#path1950_1_);}
</style>
<g id="g2303">
	<path id="path46" class="st0" d="M201.3,70c0-14.6-4.2-22-12.5-22.4c-3.3-0.2-6.5,0.4-9.7,1.6c-2.5,0.9-4.2,1.8-5.1,2.7v34.8
		c5.3,3.3,10,4.9,14.1,4.6C197,90.7,201.3,83.6,201.3,70z M211.6,70.6c0,7.4-1.7,13.5-5.2,18.4c-3.9,5.5-9.3,8.4-16.2,8.5
		c-5.2,0.2-10.5-1.5-16.1-4.9v31.6l-8.9-3.2V51c1.5-1.8,3.3-3.3,5.6-4.6c5.3-3.1,11.7-4.7,19.3-4.8l0.1,0.1c6.9-0.1,12.3,2.8,16,8.5
		C209.8,55.5,211.6,62.3,211.6,70.6z"/>
	<path id="path48" class="st0" d="M266,91.4c0,9.9-1,16.8-3,20.6c-2,3.8-5.8,6.9-11.4,9.1c-4.6,1.8-9.5,2.8-14.8,2.9l-1.5-5.6
		c5.4-0.7,9.2-1.5,11.3-2.2c4.3-1.5,7.3-3.7,8.9-6.7c1.3-2.4,1.9-7.1,1.9-14v-2.3c-6.1,2.8-12.5,4.1-19.2,4.1
		c-4.4,0-8.3-1.4-11.6-4.1c-3.7-3-5.6-6.8-5.6-11.5V44.6l8.9-3.1v37.3c0,4,1.3,7.1,3.9,9.2c2.6,2.2,5.9,3.2,10,3.1
		c4.1-0.1,8.5-1.7,13.1-4.8V42.9h8.9V91.4z"/>
	<path id="path50" class="st0" d="M300.8,97.1c-1.1,0.1-2,0.1-2.9,0.1c-5,0-9-1.2-11.8-3.6c-2.8-2.4-4.2-5.7-4.2-10V48.5h-6.1v-5.6
		h6.1V28.1l8.9-3.2v18.1h10v5.6h-10v34.8c0,3.3,0.9,5.7,2.7,7.1c1.5,1.1,4,1.8,7.3,2V97.1z"/>
	<path id="path52" class="st0" d="M354.7,96.4h-8.9V62c0-3.5-0.8-6.5-2.4-9c-1.9-2.8-4.5-4.3-7.8-4.3c-4.1,0-9.2,2.2-15.3,6.5v41.2
		h-8.9V14.2l8.9-2.8v37.4c5.7-4.1,11.9-6.2,18.7-6.2c4.7,0,8.5,1.6,11.5,4.8c2.9,3.2,4.4,7.1,4.4,11.8V96.4L354.7,96.4z"/>
	<path id="path54" class="st0" d="M402.1,68.6c0-5.6-1.1-10.2-3.2-13.9c-2.5-4.5-6.4-6.8-11.7-7c-9.8,0.6-14.6,7.6-14.6,21
		c0,6.2,1,11.3,3.1,15.4c2.6,5.3,6.5,7.8,11.8,7.8C397.2,91.8,402.1,84,402.1,68.6z M411.9,68.7c0,8-2,14.6-6.1,19.9
		c-4.5,5.9-10.7,8.9-18.5,8.9c-7.8,0-13.9-3-18.3-8.9c-4-5.3-6-11.9-6-19.9c0-7.5,2.2-13.8,6.5-18.9c4.6-5.4,10.5-8.2,17.9-8.2
		c7.4,0,13.4,2.7,18.1,8.2C409.7,54.9,411.9,61.2,411.9,68.7z"/>
	<path id="path56" class="st0" d="M462.9,96.4H454V60c0-4-1.2-7.1-3.6-9.3c-2.4-2.2-5.6-3.3-9.6-3.2c-4.2,0.1-8.3,1.5-12.1,4.1v44.8
		h-8.9V50.5c5.1-3.7,9.8-6.2,14.2-7.3c4.1-1.1,7.7-1.6,10.7-1.6c2.1,0,4.1,0.2,6,0.6c3.5,0.8,6.3,2.3,8.5,4.5
		c2.4,2.4,3.7,5.4,3.7,8.8V96.4z"/>
	
		<linearGradient id="path1948_1_" gradientUnits="userSpaceOnUse" x1="857.9479" y1="-394.9053" x2="966.9642" y2="-488.6992" gradientTransform="matrix(0.5625 0 0 -0.568 -463.0447 -206.6074)">
		<stop  offset="0" style="stop-color:#5A9FD4"/>
		<stop  offset="1" style="stop-color:#306998"/>
	</linearGradient>
	<path id="path1948" class="st1" d="M77.2,14.5c-4.6,0-9,0.4-12.8,1.1C53.1,17.6,51,21.8,51,29.5v10.2h26.8v3.4H51H41
		c-7.8,0-14.6,4.7-16.8,13.6c-2.5,10.2-2.6,16.6,0,27.2c1.9,7.9,6.5,13.6,14.2,13.6h9.2V85.3c0-8.8,7.7-16.7,16.8-16.7h26.8
		c7.5,0,13.4-6.1,13.4-13.6V29.5c0-7.3-6.1-12.7-13.4-13.9C86.6,14.8,81.8,14.5,77.2,14.5z M62.7,22.7c2.8,0,5,2.3,5,5.1
		c0,2.8-2.3,5.1-5,5.1c-2.8,0-5-2.3-5-5.1C57.7,25,60,22.7,62.7,22.7z"/>
	
		<linearGradient id="path1950_1_" gradientUnits="userSpaceOnUse" x1="1009.1107" y1="-545.4672" x2="970.181" y2="-490.3884" gradientTransform="matrix(0.5625 0 0 -0.568 -463.0447 -206.6074)">
		<stop  offset="0" style="stop-color:#FFD43B"/>
		<stop  offset="1" style="stop-color:#FFE873"/>
	</linearGradient>
	<path id="path1950" class="st2" d="M108,43.1v11.9c0,9.2-7.8,17-16.8,17H64.4c-7.3,0-13.4,6.3-13.4,13.6v25.5
		c0,7.3,6.3,11.5,13.4,13.6c8.5,2.5,16.6,2.9,26.8,0c6.8-2,13.4-5.9,13.4-13.6V101H77.8v-3.4h26.8H118c7.8,0,10.7-5.4,13.4-13.6
		c2.8-8.4,2.7-16.5,0-27.2c-1.9-7.8-5.6-13.6-13.4-13.6H108z M92.9,107.8c2.8,0,5,2.3,5,5.1c0,2.8-2.3,5.1-5,5.1c-2.8,0-5-2.3-5-5.1
		C87.9,110.1,90.1,107.8,92.9,107.8z"/>
</g>
</svg>
